<svg version="1.0" xmlns="http://www.w3.org/2000/svg" width="933.333" height="933.333" viewBox="0 0 700 700"><path d="M254 59c-22.2 3.4-39.3 17.9-47.1 40-2.2 6.2-2.4 8-2.7 41.2l-.4 34.8h-46.7c-52.2 0-55.4.3-68.4 7.2-9.1 4.8-19.4 15.5-23.9 24.8-6.7 14-6.3 1.7-6.3 187.5 0 161.1.1 169.3 1.8 174.9 6.5 21 21.1 35.4 41.8 41.3 6.1 1.7 17.3 1.8 247.9 1.8s241.8-.1 247.9-1.8c20.7-5.9 35.3-20.3 41.8-41.3 1.7-5.6 1.8-13.8 1.8-174.9 0-185.8.4-173.5-6.3-187.5-4.5-9.3-14.8-20-23.9-24.8-13-6.9-16.2-7.2-68.4-7.2h-46.7l-.4-34.8c-.3-33.2-.5-35-2.7-41.2-6.7-18.9-19.2-31.5-37.6-37.8l-8-2.7-94-.1c-51.7-.1-96.5.2-99.5.6zm183 87v29H263v-58h174v29zM204 262.5V292l29.3-.2 29.2-.3.3-29.3.2-29.2h174l.2 29.2.3 29.3 29.3.3 29.2.2v-59h87v175H117V233h87v29.5zM583 525v29H117v-58h466v29z"/></svg>