<?xml version="1.0" standalone="no"?>
<!DOCTYPE svg PUBLIC "-//W3C//DTD SVG 20010904//EN"
 "http://www.w3.org/TR/2001/REC-SVG-20010904/DTD/svg10.dtd">
<svg version="1.0" xmlns="http://www.w3.org/2000/svg"
 width="700.000000pt" height="700.000000pt" viewBox="0 0 700.000000 700.000000"
 preserveAspectRatio="xMidYMid meet">
<metadata>
Created by potrace 1.11, written by Peter Selinger 2001-2013
</metadata>
<g transform="translate(0.000000,700.000000) scale(0.100000,-0.100000)"
fill="#000000" stroke="none">
<path d="M2540 6410 c-222 -34 -393 -179 -471 -400 -22 -62 -24 -80 -27 -412
l-4 -348 -467 0 c-522 0 -554 -3 -684 -72 -91 -48 -194 -155 -239 -248 -67
-140 -63 -17 -63 -1875 0 -1611 1 -1693 18 -1749 65 -210 211 -354 418 -413
61 -17 173 -18 2479 -18 2306 0 2418 1 2479 18 207 59 353 203 418 413 17 56
18 138 18 1749 0 1858 4 1735 -63 1875 -45 93 -148 200 -239 248 -130 69 -162
72 -684 72 l-467 0 -4 348 c-3 332 -5 350 -27 412 -67 189 -192 315 -376 378
l-80 27 -940 1 c-517 1 -965 -2 -995 -6z m1830 -870 l0 -290 -870 0 -870 0 0
290 0 290 870 0 870 0 0 -290z m-2330 -1165 l0 -295 293 2 292 3 3 293 2 292
870 0 870 0 2 -292 3 -293 293 -3 292 -2 0 295 0 295 435 0 435 0 0 -875 0
-875 -2330 0 -2330 0 0 875 0 875 435 0 435 0 0 -295z m3790 -2625 l0 -290
-2330 0 -2330 0 0 290 0 290 2330 0 2330 0 0 -290z"/>
</g>
</svg>
